# xmcd
#
# Track frame offsets:
# 150
# 17291
# 33864
# 52884
# 73047
# 90110
# 109908
# 130364
# 149611
# 167925
# 190178
# 212995
# 234064
# 256414
# 272356
# 289291
# 303240
#
# Disc length: 4306 seconds
#
#
# Revision: 3
# Processed by: cddbd v1.5.2PL0 Copyright (c) Steve Scherf et al.
# Submitted via: FreeRIP 2.942 
#
DISCID=e810d011
DTITLE=Various Artist - Festa Charme 2
DYEAR=2001
DGENRE=Hip-Hop
TTITLE0=Shaggy - It Wasn't Me
TTITLE1=Destiny's Child - Independt Women Parti
TTITLE2=Destiny's Child - Survivor
TTITLE3=Keith Sweat - Real Man
TTITLE4=Lady Shaw and Marsha - Son Of a Bitch
TTITLE5=Tony Braxton - He Wasn't Man Enough
TTITLE6=Lessa Barnes - Ooogie Things Proper
TTITLE7=Joe - Get Crunk Tonight
TTITLE8=Ruf-Fendz - Cuban Linx
TTITLE9=Angie Stone - Keep Your Wornes
TTITLE10=Della Soul - All Good
TTITLE11=Juice - i'm Into You
TTITLE12=Macy Gray - Do Somenthing
TTITLE13=Lucy Perrf - Lala
TTITLE14=Tony Thompson - My Cheire Amour
TTITLE15=Jaheim - Could It Be
TTITLE16=Manifah - Brown Eyes
EXTD=
EXTT0=
EXTT1=
EXTT2=
EXTT3=
EXTT4=
EXTT5=
EXTT6=
EXTT7=
EXTT8=
EXTT9=
EXTT10=
EXTT11=
EXTT12=
EXTT13=
EXTT14=
EXTT15=
EXTT16=
PLAYORDER=
